<?xml version="1.0" standalone="no"?>
<!DOCTYPE svg PUBLIC "-//W3C//DTD SVG 20010904//EN"
 "http://www.w3.org/TR/2001/REC-SVG-20010904/DTD/svg10.dtd">
<svg version="1.0" xmlns="http://www.w3.org/2000/svg"
 width="634.000000pt" height="634.000000pt" viewBox="0 0 634.000000 634.000000"
 preserveAspectRatio="xMidYMid meet">
<metadata>
Created by potrace 1.14, written by Peter Selinger 2001-2017
</metadata>
<g transform="translate(0.000000,634.000000) scale(0.100000,-0.100000)"
fill="#000000" stroke="none">
<path d="M2969 6336 c-2 -2 -40 -6 -84 -10 -44 -3 -91 -8 -105 -10 -14 -3 -47
-7 -75 -11 -191 -23 -580 -129 -733 -200 -29 -14 -55 -25 -58 -25 -14 0 -221
-104 -319 -160 -92 -53 -277 -172 -295 -190 -3 -3 -23 -19 -45 -35 -149 -111
-374 -322 -495 -465 -256 -301 -472 -682 -590 -1040 -56 -171 -66 -204 -94
-330 -26 -120 -31 -146 -40 -220 -3 -25 -8 -55 -10 -68 -28 -138 -28 -640 -1
-808 48 -304 113 -554 195 -754 57 -138 64 -154 131 -285 88 -175 227 -392
336 -526 142 -173 307 -342 464 -474 29 -24 202 -153 243 -180 70 -47 82 -55
96 -62 8 -4 33 -19 55 -34 118 -79 386 -204 585 -273 106 -37 309 -94 365
-102 17 -3 37 -7 45 -10 8 -3 33 -8 55 -10 22 -3 46 -7 53 -10 8 -2 37 -7 65
-10 29 -3 58 -7 65 -9 57 -19 530 -27 687 -12 70 7 107 12 240 33 17 2 53 9
80 14 28 6 59 12 70 14 11 2 56 14 100 25 44 12 87 23 95 26 178 46 508 185
700 296 54 30 280 178 290 189 3 3 32 25 65 50 33 25 65 50 71 55 6 6 40 35
75 65 414 357 743 848 919 1368 33 100 57 177 66 217 1 6 9 37 17 70 19 71 44
203 52 271 3 27 8 58 10 69 26 130 26 669 0 794 -2 14 -7 45 -10 70 -3 25 -7
57 -10 71 -5 25 -18 91 -20 100 -1 3 -7 32 -14 65 -17 79 -73 270 -111 374
-126 351 -339 715 -580 993 -71 82 -277 286 -337 335 -27 21 -54 44 -62 51
-54 51 -343 250 -426 294 -16 9 -69 36 -117 62 -267 142 -650 270 -923 310
-23 4 -50 8 -61 10 -11 2 -47 7 -79 11 -33 4 -71 9 -85 12 -29 5 -506 14 -511
9z"/>
</g>
</svg>
